<?xml version="1.0" encoding="UTF-8"?>
<svg width="18px" height="18px" viewBox="0 0 18 18" version="1.1" xmlns="http://www.w3.org/2000/svg" xmlns:xlink="http://www.w3.org/1999/xlink">
    <!-- Generator: Sketch 51.1 (57501) - http://www.bohemiancoding.com/sketch -->
    <title>商品管理</title>
    <desc>Created with Sketch.</desc>
    <defs></defs>
    <g id="Page-1" stroke="none" stroke-width="1" fill="none" fill-rule="evenodd">
        <g id="iPhone-8-Copy-2" transform="translate(-116.000000, -80.000000)" fill="#919398" fill-rule="nonzero">
            <g id="商品管理" transform="translate(116.000000, 80.000000)">
                <path d="M15.375,15 L2.625,15 C2.418,15 2.25,14.832 2.25,14.625 C2.25,14.418 2.418,14.25 2.625,14.25 L15.375,14.25 C15.582,14.25 15.75,14.418 15.75,14.625 C15.75,14.832 15.582,15 15.375,15 Z" id="Shape"></path>
                <path d="M13.875,7.5 C13.668,7.5 13.5,7.332 13.5,7.125 L13.5,2.625 C13.5,1.5915 12.65925,0.75 11.625,0.75 L6.375,0.75 C5.34075,0.75 4.5,1.5915 4.5,2.625 L4.5,7.125 C4.5,7.332 4.332,7.5 4.125,7.5 C3.918,7.5 3.75,7.332 3.75,7.125 L3.75,2.625 C3.75,1.1775 4.9275,0 6.375,0 L11.625,0 C13.0725,0 14.25,1.1775 14.25,2.625 L14.25,7.125 C14.25,7.332 14.082,7.5 13.875,7.5 Z" id="Shape"></path>
                <path d="M12.375,5.25 L5.625,5.25 C5.418,5.25 5.25,5.082 5.25,4.875 C5.25,4.668 5.418,4.5 5.625,4.5 L12.375,4.5 C12.582,4.5 12.75,4.668 12.75,4.875 C12.75,5.082 12.582,5.25 12.375,5.25 Z" id="Shape"></path>
                <path d="M17.625,18 L0.375,18 C0.26475,18 0.159,17.95125 0.08775,17.86575 C0.01575,17.781 -0.01425,17.6685 0.006,17.55975 L2.256,4.80975 C2.292,4.605 2.4885,4.46775 2.69025,4.506 C2.8935,4.542 3.03,4.73625 2.994,4.94025 L0.822,17.25 L17.17875,17.25 L15.006,4.94025 C14.97,4.73625 15.1065,4.542 15.30975,4.506 C15.5085,4.46775 15.70725,4.605 15.744,4.80975 L17.994,17.55975 C18.0135,17.66925 17.9835,17.781 17.91225,17.86575 C17.841,17.95125 17.73525,18 17.625,18 Z" id="Shape"></path>
            </g>
        </g>
    </g>
</svg>