<?xml version="1.0" encoding="UTF-8"?>
<svg width="18px" height="12px" viewBox="0 0 18 12" version="1.1" xmlns="http://www.w3.org/2000/svg" xmlns:xlink="http://www.w3.org/1999/xlink">
    <!-- Generator: Sketch 51.1 (57501) - http://www.bohemiancoding.com/sketch -->
    <title>发票管理</title>
    <desc>Created with Sketch.</desc>
    <defs></defs>
    <g id="Page-1" stroke="none" stroke-width="1" fill="none" fill-rule="evenodd">
        <g id="iPhone-8-Copy-2" transform="translate(-184.000000, -83.000000)" fill="#919398" fill-rule="nonzero">
            <g id="发票管理" transform="translate(184.000000, 83.000000)">
                <path d="M17.625,11.625 L0.375,11.625 C0.168,11.625 0,11.457 0,11.25 L0,8.25 C0,8.043 0.168,7.875 0.375,7.875 C1.40925,7.875 2.25,7.0335 2.25,6 C2.25,4.9665 1.40925,4.125 0.375,4.125 C0.168,4.125 0,3.957 0,3.75 L0,0.75 C0,0.543 0.168,0.375 0.375,0.375 L17.625,0.375 C17.832,0.375 18,0.543 18,0.75 L18,3.75 C18,3.957 17.832,4.125 17.625,4.125 C16.59075,4.125 15.75,4.9665 15.75,6 C15.75,7.0335 16.59075,7.875 17.625,7.875 C17.832,7.875 18,8.043 18,8.25 L18,11.25 C18,11.457 17.832,11.625 17.625,11.625 Z M0.75,10.875 L17.25,10.875 L17.25,8.598 C15.9795,8.41575 15,7.32 15,6 C15,4.68 15.9795,3.58425 17.25,3.402 L17.25,1.125 L0.75,1.125 L0.75,3.402 C2.0205,3.58425 3,4.68 3,6 C3,7.32 2.0205,8.41575 0.75,8.598 L0.75,10.875 Z" id="Shape"></path>
                <path d="M4.875,7.125 C4.668,7.125 4.5,6.957 4.5,6.75 L4.5,5.25 C4.5,5.043 4.668,4.875 4.875,4.875 C5.082,4.875 5.25,5.043 5.25,5.25 L5.25,6.75 C5.25,6.957 5.082,7.125 4.875,7.125 Z" id="Shape"></path>
                <path d="M4.875,4.125 C4.668,4.125 4.5,3.957 4.5,3.75 L4.5,2.25 C4.5,2.043 4.668,1.875 4.875,1.875 C5.082,1.875 5.25,2.043 5.25,2.25 L5.25,3.75 C5.25,3.957 5.082,4.125 4.875,4.125 Z" id="Shape"></path>
                <path d="M4.875,10.125 C4.668,10.125 4.5,9.957 4.5,9.75 L4.5,8.25 C4.5,8.043 4.668,7.875 4.875,7.875 C5.082,7.875 5.25,8.043 5.25,8.25 L5.25,9.75 C5.25,9.957 5.082,10.125 4.875,10.125 Z" id="Shape"></path>
                <path d="M13.125,7.125 C12.918,7.125 12.75,6.957 12.75,6.75 L12.75,5.25 C12.75,5.043 12.918,4.875 13.125,4.875 C13.332,4.875 13.5,5.043 13.5,5.25 L13.5,6.75 C13.5,6.957 13.332,7.125 13.125,7.125 Z" id="Shape"></path>
                <path d="M13.125,4.125 C12.918,4.125 12.75,3.957 12.75,3.75 L12.75,2.25 C12.75,2.043 12.918,1.875 13.125,1.875 C13.332,1.875 13.5,2.043 13.5,2.25 L13.5,3.75 C13.5,3.957 13.332,4.125 13.125,4.125 Z" id="Shape"></path>
                <path d="M13.125,10.125 C12.918,10.125 12.75,9.957 12.75,9.75 L12.75,8.25 C12.75,8.043 12.918,7.875 13.125,7.875 C13.332,7.875 13.5,8.043 13.5,8.25 L13.5,9.75 C13.5,9.957 13.332,10.125 13.125,10.125 Z" id="Shape"></path>
            </g>
        </g>
    </g>
</svg>