<?xml version="1.0" encoding="UTF-8"?>
<svg width="18px" height="18px" viewBox="0 0 18 18" version="1.1" xmlns="http://www.w3.org/2000/svg" xmlns:xlink="http://www.w3.org/1999/xlink">
    <!-- Generator: Sketch 51.1 (57501) - http://www.bohemiancoding.com/sketch -->
    <title>营销活动</title>
    <desc>Created with Sketch.</desc>
    <defs></defs>
    <g id="Page-1" stroke="none" stroke-width="1" fill="none" fill-rule="evenodd">
        <g id="iPhone-8-Copy-2" transform="translate(-160.000000, -80.000000)" fill="#919398" fill-rule="nonzero">
            <g id="营销活动" transform="translate(160.000000, 80.000000)">
                <path d="M7.125,18 C7.029,18 6.933,17.96325 6.8595,17.8905 L0.1095,11.1405 C-0.03675,10.99425 -0.03675,10.7565 0.1095,10.61025 L10.6095,0.11025 C10.68,0.03975 10.77525,0 10.875,0 L17.625,0 C17.832,0 18,0.168 18,0.375 L18,7.125 C18,7.22475 17.96025,7.32 17.8905,7.3905 L7.3905,17.8905 C7.317,17.96325 7.221,18 7.125,18 Z M0.90525,10.875 L7.125,17.09475 L17.25,6.96975 L17.25,0.75 L11.03025,0.75 L0.90525,10.875 Z" id="Shape"></path>
                <path d="M13.875,6 C12.84075,6 12,5.1585 12,4.125 C12,3.0915 12.84075,2.25 13.875,2.25 C14.90925,2.25 15.75,3.0915 15.75,4.125 C15.75,5.1585 14.90925,6 13.875,6 Z M13.875,3 C13.25475,3 12.75,3.50475 12.75,4.125 C12.75,4.74525 13.25475,5.25 13.875,5.25 C14.49525,5.25 15,4.74525 15,4.125 C15,3.50475 14.49525,3 13.875,3 Z" id="Shape"></path>
                <path d="M7.875,13.5 C7.668,13.5 7.5,13.332 7.5,13.125 L7.5,7.125 C7.5,6.918 7.668,6.75 7.875,6.75 C8.082,6.75 8.25,6.918 8.25,7.125 L8.25,13.125 C8.25,13.332 8.082,13.5 7.875,13.5 Z" id="Shape"></path>
                <path d="M5.625,10.5 C5.00475,10.5 4.5,9.99525 4.5,9.375 C4.5,8.75475 5.00475,8.25 5.625,8.25 C6.24525,8.25 6.75,8.75475 6.75,9.375 C6.75,9.99525 6.24525,10.5 5.625,10.5 Z M5.625,9 C5.41875,9 5.25,9.168 5.25,9.375 C5.25,9.582 5.41875,9.75 5.625,9.75 C5.83125,9.75 6,9.582 6,9.375 C6,9.168 5.83125,9 5.625,9 Z" id="Shape"></path>
                <path d="M10.125,12 C9.50475,12 9,11.49525 9,10.875 C9,10.25475 9.50475,9.75 10.125,9.75 C10.74525,9.75 11.25,10.25475 11.25,10.875 C11.25,11.49525 10.74525,12 10.125,12 Z M10.125,10.5 C9.91875,10.5 9.75,10.668 9.75,10.875 C9.75,11.082 9.91875,11.25 10.125,11.25 C10.33125,11.25 10.5,11.082 10.5,10.875 C10.5,10.668 10.33125,10.5 10.125,10.5 Z" id="Shape"></path>
            </g>
        </g>
    </g>
</svg>