<?xml version="1.0" encoding="UTF-8"?>
<svg width="17px" height="18px" viewBox="0 0 17 18" version="1.1" xmlns="http://www.w3.org/2000/svg" xmlns:xlink="http://www.w3.org/1999/xlink">
    <!-- Generator: Sketch 51.1 (57501) - http://www.bohemiancoding.com/sketch -->
    <title>订单管理</title>
    <desc>Created with Sketch.</desc>
    <defs></defs>
    <g id="Page-1" stroke="none" stroke-width="1" fill="none" fill-rule="evenodd">
        <g id="iPhone-8-Copy-2" transform="translate(-140.000000, -80.000000)" fill="#919398" fill-rule="nonzero">
            <g id="订单管理" transform="translate(140.000000, 80.000000)">
                <path d="M13.125,13.5 L10.125,13.5 C9.918,13.5 9.75,13.332 9.75,13.125 C9.75,12.918 9.918,12.75 10.125,12.75 L12.75,12.75 L12.75,1.875 C12.75,1.45275 12.89025,1.0635 13.12575,0.75 L8.625,0.75 C7.5915,0.75 6.75,1.5915 6.75,2.625 L6.75,10.875 C6.75,11.082 6.582,11.25 6.375,11.25 C6.168,11.25 6,11.082 6,10.875 L6,2.625 C6,1.1775 7.1775,0 8.625,0 L14.625,0 C14.832,0 15,0.168 15,0.375 C15,0.582 14.832,0.75 14.625,0.75 C14.00475,0.75 13.5,1.25475 13.5,1.875 L13.5,13.125 C13.5,13.332 13.332,13.5 13.125,13.5 Z" id="Shape"></path>
                <path d="M7.875,18 L0.375,18 C0.168,18 0,17.832 0,17.625 C0,17.418 0.168,17.25 0.375,17.25 C1.4085,17.25 2.25,16.4085 2.25,15.375 L2.25,13.125 C2.25,11.6775 3.4275,10.5 4.875,10.5 L11.625,10.5 C11.832,10.5 12,10.668 12,10.875 C12,11.082 11.832,11.25 11.625,11.25 C11.00475,11.25 10.5,11.75475 10.5,12.375 L10.5,15.375 C10.5,16.8225 9.3225,18 7.875,18 Z M2.21025,17.25 L7.875,17.25 C8.9085,17.25 9.75,16.4085 9.75,15.375 L9.75,12.375 C9.75,11.95275 9.89025,11.5635 10.12575,11.25 L4.875,11.25 C3.8415,11.25 3,12.0915 3,13.125 L3,15.375 C3,16.10925 2.69775,16.773 2.21025,17.25 Z" id="Shape"></path>
                <path d="M13.125,13.5 C12.918,13.5 12.75,13.332 12.75,13.125 L12.75,12.375 C12.75,11.75475 12.24525,11.25 11.625,11.25 L10.875,11.25 C10.668,11.25 10.5,11.082 10.5,10.875 C10.5,10.668 10.668,10.5 10.875,10.5 L11.625,10.5 C12.6585,10.5 13.5,11.3415 13.5,12.375 L13.5,13.125 C13.5,13.332 13.332,13.5 13.125,13.5 Z" id="Shape"></path>
                <path d="M16.125,3 L13.125,3 C12.918,3 12.75,2.832 12.75,2.625 C12.75,2.418 12.918,2.25 13.125,2.25 L15.75,2.25 L15.75,1.875 C15.75,1.25475 15.24525,0.75 14.625,0.75 C14.418,0.75 14.25,0.582 14.25,0.375 C14.25,0.168 14.418,0 14.625,0 C15.6585,0 16.5,0.8415 16.5,1.875 L16.5,2.625 C16.5,2.832 16.332,3 16.125,3 Z" id="Shape"></path>
                <path d="M11.625,3 L7.875,3 C7.668,3 7.5,2.832 7.5,2.625 C7.5,2.418 7.668,2.25 7.875,2.25 L11.625,2.25 C11.832,2.25 12,2.418 12,2.625 C12,2.832 11.832,3 11.625,3 Z" id="Shape"></path>
                <path d="M11.625,5.25 L7.875,5.25 C7.668,5.25 7.5,5.082 7.5,4.875 C7.5,4.668 7.668,4.5 7.875,4.5 L11.625,4.5 C11.832,4.5 12,4.668 12,4.875 C12,5.082 11.832,5.25 11.625,5.25 Z" id="Shape"></path>
                <path d="M11.625,7.5 L7.875,7.5 C7.668,7.5 7.5,7.332 7.5,7.125 C7.5,6.918 7.668,6.75 7.875,6.75 L11.625,6.75 C11.832,6.75 12,6.918 12,7.125 C12,7.332 11.832,7.5 11.625,7.5 Z" id="Shape"></path>
                <path d="M11.625,9.75 L7.875,9.75 C7.668,9.75 7.5,9.582 7.5,9.375 C7.5,9.168 7.668,9 7.875,9 L11.625,9 C11.832,9 12,9.168 12,9.375 C12,9.582 11.832,9.75 11.625,9.75 Z" id="Shape"></path>
                <path d="M8.625,13.5 L4.125,13.5 C3.918,13.5 3.75,13.332 3.75,13.125 C3.75,12.918 3.918,12.75 4.125,12.75 L8.625,12.75 C8.832,12.75 9,12.918 9,13.125 C9,13.332 8.832,13.5 8.625,13.5 Z" id="Shape"></path>
                <path d="M8.625,15.75 L4.125,15.75 C3.918,15.75 3.75,15.582 3.75,15.375 C3.75,15.168 3.918,15 4.125,15 L8.625,15 C8.832,15 9,15.168 9,15.375 C9,15.582 8.832,15.75 8.625,15.75 Z" id="Shape"></path>
            </g>
        </g>
    </g>
</svg>