<?xml version="1.0" encoding="UTF-8"?>
<svg width="15px" height="18px" viewBox="0 0 15 18" version="1.1" xmlns="http://www.w3.org/2000/svg" xmlns:xlink="http://www.w3.org/1999/xlink">
    <!-- Generator: Sketch 51.1 (57501) - http://www.bohemiancoding.com/sketch -->
    <title>移动端店铺</title>
    <desc>Created with Sketch.</desc>
    <defs></defs>
    <g id="Page-1" stroke="none" stroke-width="1" fill="none" fill-rule="evenodd">
        <g id="iPhone-8-Copy-2" transform="translate(-96.000000, -80.000000)" fill="#919398" fill-rule="nonzero">
            <g id="移动端店铺" transform="translate(96.000000, 80.000000)">
                <path d="M6,16.5 L7.5,16.5 C7.725,16.5 7.875,16.35 7.875,16.125 C7.875,15.9 7.725,15.75 7.5,15.75 L6,15.75 C5.775,15.75 5.625,15.9 5.625,16.125 C5.625,16.35 5.775,16.5 6,16.5 Z" id="Shape"></path>
                <path d="M12.75,13.5 C12.525,13.5 12.375,13.65 12.375,13.875 L12.375,14.25 L1.125,14.25 L1.125,1.875 C1.125,1.275 1.65,0.75 2.25,0.75 L11.25,0.75 C11.85,0.75 12.375,1.275 12.375,1.875 L12.375,4.125 C12.375,4.35 12.525,4.5 12.75,4.5 C12.975,4.5 13.125,4.35 13.125,4.125 L13.125,1.875 C13.125,0.825 12.3,0 11.25,0 L2.25,0 C1.2,0 0.375,0.825 0.375,1.875 L0.375,16.125 C0.375,17.175 1.2,18 2.25,18 L11.25,18 C12.3,18 13.125,17.175 13.125,16.125 L13.125,13.875 C13.125,13.65 12.975,13.5 12.75,13.5 Z M12.375,16.125 C12.375,16.725 11.85,17.25 11.25,17.25 L2.25,17.25 C1.65,17.25 1.125,16.725 1.125,16.125 L1.125,15 L12.375,15 L12.375,16.125 Z" id="Shape"></path>
                <path d="M10.125,11.625 C10.125,11.025 9.6,10.5 9,10.5 C8.4,10.5 7.875,11.025 7.875,11.625 C7.875,12.225 8.4,12.75 9,12.75 C9.6,12.75 10.125,12.225 10.125,11.625 Z M8.625,11.625 C8.625,11.4 8.775,11.25 9,11.25 C9.225,11.25 9.375,11.4 9.375,11.625 C9.375,11.85 9.225,12 9,12 C8.775,12 8.625,11.85 8.625,11.625 Z" id="Shape"></path>
                <path d="M14.55,5.4 C14.475,5.325 14.4,5.25 14.25,5.25 L6.45,5.25 L6.3,4.8 C6.225,4.65 6.075,4.5 5.925,4.5 L4.425,4.5 C4.2,4.5 4.05,4.65 4.05,4.875 C4.05,5.1 4.2,5.25 4.425,5.25 L5.625,5.25 L7.05,10.95 C7.125,11.1 7.275,11.25 7.425,11.25 L7.5,11.25 C7.725,11.175 7.8,11.025 7.8,10.8 L7.5,9.75 L13.425,9.075 C13.575,9.075 13.725,8.925 13.725,8.775 L14.475,5.775 C14.625,5.625 14.625,5.475 14.55,5.4 Z M13.2,8.25 L7.425,8.925 L6.675,5.925 L13.8,5.925 L13.2,8.25 Z" id="Shape"></path>
                <circle id="Oval" cx="2.25" cy="1.875" r="1"></circle>
                <path d="M12,10.5 C11.4,10.5 10.875,11.025 10.875,11.625 C10.875,12.225 11.4,12.75 12,12.75 C12.6,12.75 13.125,12.225 13.125,11.625 C13.125,11.025 12.6,10.5 12,10.5 Z M12,12 C11.775,12 11.625,11.85 11.625,11.625 C11.625,11.4 11.775,11.25 12,11.25 C12.225,11.25 12.375,11.4 12.375,11.625 C12.375,11.85 12.225,12 12,12 Z" id="Shape"></path>
            </g>
        </g>
    </g>
</svg>