<?xml version="1.0" encoding="UTF-8"?>
<svg width="18px" height="18px" viewBox="0 0 18 18" version="1.1" xmlns="http://www.w3.org/2000/svg" xmlns:xlink="http://www.w3.org/1999/xlink">
    <!-- Generator: Sketch 51.1 (57501) - http://www.bohemiancoding.com/sketch -->
    <title>网页端店铺</title>
    <desc>Created with Sketch.</desc>
    <defs></defs>
    <g id="Page-1" stroke="none" stroke-width="1" fill="none" fill-rule="evenodd">
        <g id="iPhone-8-Copy-2" transform="translate(-69.000000, -80.000000)" fill="#919398" fill-rule="nonzero">
            <g id="网页端店铺" transform="translate(69.000000, 80.000000)">
                <path d="M15.75,0.375 L2.25,0.375 C1.2,0.375 0.375,1.2 0.375,2.25 L0.375,12.75 C0.375,13.8 1.2,14.625 2.25,14.625 L7.875,14.625 L7.875,15.375 L5.25,15.375 C4.2,15.375 3.375,16.2 3.375,17.25 C3.375,17.475 3.525,17.625 3.75,17.625 L14.25,17.625 C14.475,17.625 14.625,17.475 14.625,17.25 C14.625,16.2 13.8,15.375 12.75,15.375 L10.125,15.375 L10.125,14.625 L15.75,14.625 C16.8,14.625 17.625,13.8 17.625,12.75 L17.625,2.25 C17.625,1.2 16.8,0.375 15.75,0.375 Z M12.75,16.125 C13.275,16.125 13.65,16.425 13.8,16.875 L4.2,16.875 C4.35,16.425 4.8,16.125 5.25,16.125 L12.75,16.125 Z M8.625,15.375 L8.625,14.625 L9.375,14.625 L9.375,15.375 L8.625,15.375 Z M16.875,12.75 C16.875,13.35 16.35,13.875 15.75,13.875 L2.25,13.875 C1.65,13.875 1.125,13.35 1.125,12.75 L1.125,12.375 L16.875,12.375 L16.875,12.75 Z M16.875,11.625 L1.125,11.625 L1.125,2.25 C1.125,1.65 1.65,1.125 2.25,1.125 L15.75,1.125 C16.35,1.125 16.875,1.65 16.875,2.25 L16.875,11.625 Z" id="Shape"></path>
                <path d="M11.25,8.625 C10.65,8.625 10.125,9.15 10.125,9.75 C10.125,10.35 10.65,10.875 11.25,10.875 C11.85,10.875 12.375,10.35 12.375,9.75 C12.375,9.15 11.85,8.625 11.25,8.625 Z M11.25,10.125 C11.025,10.125 10.875,9.975 10.875,9.75 C10.875,9.525 11.025,9.375 11.25,9.375 C11.475,9.375 11.625,9.525 11.625,9.75 C11.625,9.975 11.475,10.125 11.25,10.125 Z" id="Shape"></path>
                <path d="M13.5,3.375 L5.7,3.375 L5.55,2.925 C5.475,2.775 5.325,2.625 5.175,2.625 L3.675,2.625 C3.45,2.625 3.3,2.775 3.3,3 C3.3,3.225 3.45,3.375 3.675,3.375 L4.875,3.375 L6.3,9.075 C6.375,9.225 6.525,9.375 6.675,9.375 L6.75,9.375 C6.975,9.3 7.05,9.15 7.05,8.925 L6.75,7.875 L12.675,7.2 C12.825,7.2 12.975,7.05 12.975,6.9 L13.725,3.9 C13.725,3.825 13.725,3.675 13.65,3.6 C13.725,3.45 13.65,3.375 13.5,3.375 Z M12.45,6.375 L6.675,7.05 L5.925,4.05 L13.05,4.05 L12.45,6.375 Z" id="Shape"></path>
                <path d="M8.25,8.625 C7.65,8.625 7.125,9.15 7.125,9.75 C7.125,10.35 7.65,10.875 8.25,10.875 C8.85,10.875 9.375,10.35 9.375,9.75 C9.375,9.15 8.85,8.625 8.25,8.625 Z M8.25,10.125 C8.025,10.125 7.875,9.975 7.875,9.75 C7.875,9.525 8.025,9.375 8.25,9.375 C8.475,9.375 8.625,9.525 8.625,9.75 C8.625,9.975 8.475,10.125 8.25,10.125 Z" id="Shape"></path>
            </g>
        </g>
    </g>
</svg>