<?xml version="1.0" encoding="UTF-8"?>
<svg width="18px" height="18px" viewBox="0 0 18 18" version="1.1" xmlns="http://www.w3.org/2000/svg" xmlns:xlink="http://www.w3.org/1999/xlink">
    <!-- Generator: Sketch 51.1 (57501) - http://www.bohemiancoding.com/sketch -->
    <title>我的店铺</title>
    <desc>Created with Sketch.</desc>
    <defs></defs>
    <g id="Page-1" stroke="none" stroke-width="1" fill="none" fill-rule="evenodd">
        <g id="iPhone-8-Copy-2" transform="translate(-42.000000, -80.000000)" fill="#919398" fill-rule="nonzero">
            <g id="我的店铺" transform="translate(42.000000, 80.000000)">
                <path d="M17.25,18 L0.75,18 C0.543,18 0.375,17.832 0.375,17.625 C0.375,16.5915 1.2165,15.75 2.25,15.75 L15.75,15.75 C16.7835,15.75 17.625,16.5915 17.625,17.625 C17.625,17.832 17.457,18 17.25,18 Z M1.18875,17.25 L16.8105,17.25 C16.65525,16.8135 16.23825,16.5 15.74925,16.5 L2.25,16.5 C1.761,16.5 1.344,16.8135 1.18875,17.25 Z" id="Shape"></path>
                <path d="M14.25,3.75 L3.75,3.75 C3.543,3.75 3.375,3.582 3.375,3.375 L3.375,1.875 C3.375,0.8415 4.2165,0 5.25,0 L12.75,0 C13.7835,0 14.625,0.8415 14.625,1.875 L14.625,3.375 C14.625,3.582 14.457,3.75 14.25,3.75 Z M4.125,3 L13.875,3 L13.875,1.875 C13.875,1.25475 13.37025,0.75 12.75,0.75 L5.25,0.75 C4.62975,0.75 4.125,1.25475 4.125,1.875 L4.125,3 Z" id="Shape"></path>
                <path d="M3,9 C1.9665,9 1.125,8.1585 1.125,7.125 C1.125,7.05675 1.143,6.99 1.17825,6.93225 L3.42825,3.18225 C3.4965,3.069 3.618,3 3.75,3 L5.25,3 C5.3625,3 5.469,3.05025 5.54025,3.13725 C5.61075,3.22425 5.64,3.33825 5.6175,3.4485 L4.8675,7.1985 C4.875,8.1585 4.0335,9 3,9 Z M1.87875,7.22175 C1.92825,7.797 2.412,8.25 3,8.25 C3.62025,8.25 4.125,7.74525 4.125,7.125 L4.79325,3.75 L3.96225,3.75 L1.87875,7.22175 Z" id="Shape"></path>
                <path d="M9,9 C7.9665,9 7.125,8.1585 7.125,7.125 L7.125,3.375 C7.125,3.168 7.293,3 7.5,3 L10.5,3 C10.707,3 10.875,3.168 10.875,3.375 L10.875,7.125 C10.875,8.1585 10.0335,9 9,9 Z M7.875,3.75 L7.875,7.125 C7.875,7.74525 8.37975,8.25 9,8.25 C9.62025,8.25 10.125,7.74525 10.125,7.125 L10.125,3.75 L7.875,3.75 Z" id="Shape"></path>
                <path d="M6,9 C4.9665,9 4.125,8.1585 4.125,7.125 L4.8825,3.3015 C4.91775,3.126 5.0715,3 5.25,3 L7.5,3 C7.707,3 7.875,3.168 7.875,3.375 L7.875,7.125 C7.875,8.1585 7.0335,9 6,9 Z M5.5575,3.75 L4.8675,7.1985 C4.875,7.74525 5.37975,8.25 6,8.25 C6.62025,8.25 7.125,7.74525 7.125,7.125 L7.125,3.75 L5.5575,3.75 Z" id="Shape"></path>
                <path d="M15,9 C13.9665,9 13.125,8.1585 13.125,7.125 L12.3825,3.4485 C12.36075,3.33825 12.38925,3.22425 12.4605,3.13725 C12.531,3.05025 12.6375,3 12.75,3 L14.25,3 C14.382,3 14.5035,3.069 14.57175,3.18225 L16.82175,6.93225 C16.857,6.99 16.875,7.05675 16.875,7.125 C16.875,8.1585 16.0335,9 15,9 Z M13.2075,3.75 L13.8675,7.0515 C13.875,7.74525 14.37975,8.25 15,8.25 C15.588,8.25 16.07175,7.797 16.12125,7.22175 L14.03775,3.75 L13.2075,3.75 Z" id="Shape"></path>
                <path d="M12,9 C10.9665,9 10.125,8.1585 10.125,7.125 L10.125,3.375 C10.125,3.168 10.293,3 10.5,3 L12.75,3 C12.9285,3 13.08225,3.126 13.1175,3.3015 L13.8675,7.0515 C13.875,8.1585 13.0335,9 12,9 Z M10.875,3.75 L10.875,7.125 C10.875,7.74525 11.37975,8.25 12,8.25 C12.62025,8.25 13.125,7.74525 13.125,7.125 L12.44325,3.75 L10.875,3.75 Z" id="Shape"></path>
                <path d="M15,16.5 L3,16.5 C2.793,16.5 2.625,16.332 2.625,16.125 L2.625,8.625 C2.625,8.418 2.793,8.25 3,8.25 C3.207,8.25 3.375,8.418 3.375,8.625 L3.375,15.75 L14.625,15.75 L14.625,8.625 C14.625,8.418 14.793,8.25 15,8.25 C15.207,8.25 15.375,8.418 15.375,8.625 L15.375,16.125 C15.375,16.332 15.207,16.5 15,16.5 Z" id="Shape"></path>
                <path d="M8.25,14.25 L4.5,14.25 C4.293,14.25 4.125,14.082 4.125,13.875 L4.125,10.125 C4.125,9.918 4.293,9.75 4.5,9.75 L8.25,9.75 C8.457,9.75 8.625,9.918 8.625,10.125 L8.625,13.875 C8.625,14.082 8.457,14.25 8.25,14.25 Z M4.875,13.5 L7.875,13.5 L7.875,10.5 L4.875,10.5 L4.875,13.5 Z" id="Shape"></path>
                <path d="M13.5,16.5 L9.75,16.5 C9.543,16.5 9.375,16.332 9.375,16.125 L9.375,10.125 C9.375,9.918 9.543,9.75 9.75,9.75 L13.5,9.75 C13.707,9.75 13.875,9.918 13.875,10.125 L13.875,16.125 C13.875,16.332 13.707,16.5 13.5,16.5 Z M10.125,15.75 L13.125,15.75 L13.125,10.5 L10.125,10.5 L10.125,15.75 Z" id="Shape"></path>
            </g>
        </g>
    </g>
</svg>